# xmcd
#
# Track frame offsets:
#	150
#	24247
#	49799
#	65866
#	84826
#	102316
#	125920
#	160284
#	182282
#	210857
#
# Disc length: 3180 seconds
#
# Revision: 0
# Processed by: cddbd v1.5.2PL0 Copyright (c) Steve Scherf et al.
# Submitted via: EasyCDDAExtractor 10.0.6.1
#
DISCID=7c0c6a0a
DTITLE=Root Doctor - Change Our Ways
DYEAR=2007
DGENRE=Blues
TTITLE0=Blues Will Take Good Care Of You
TTITLE1=Root Doctor
TTITLE2=Keep Our Business Off The Streets
TTITLE3=Give Me Love
TTITLE4=Lucky One
TTITLE5=People Say
TTITLE6=Soul Shine
TTITLE7=Big Blue Cadillac
TTITLE8=Change Our Ways
TTITLE9=I Wish It Would Rain
EXTD=
EXTT0=
EXTT1=
EXTT2=
EXTT3=
EXTT4=
EXTT5=
EXTT6=
EXTT7=
EXTT8=
EXTT9=
PLAYORDER=
